<svg width="64" height="64" viewBox="0 0 64 64" fill="none" xmlns="http://www.w3.org/2000/svg">
<g id="Frame">
<path id="Vector" d="M21.3333 56H42.6667M32 45.3334V56M32 45.3334C35.5362 45.3334 38.9276 43.9286 41.4281 41.4281C43.9286 38.9276 45.3333 35.5362 45.3333 32V10.6667H18.6667V32C18.6667 35.5362 20.0714 38.9276 22.5719 41.4281C25.0724 43.9286 28.4638 45.3334 32 45.3334ZM8 24C8 25.4145 8.5619 26.7711 9.5621 27.7713C10.5623 28.7714 11.9188 29.3334 13.3333 29.3334C14.7478 29.3334 16.1044 28.7714 17.1046 27.7713C18.1048 26.7711 18.6667 25.4145 18.6667 24C18.6667 22.5855 18.1048 21.229 17.1046 20.2288C16.1044 19.2286 14.7478 18.6667 13.3333 18.6667C11.9188 18.6667 10.5623 19.2286 9.5621 20.2288C8.5619 21.229 8 22.5855 8 24ZM45.3333 24C45.3333 25.4145 45.8952 26.7711 46.8954 27.7713C47.8956 28.7714 49.2522 29.3334 50.6667 29.3334C52.0812 29.3334 53.4377 28.7714 54.4379 27.7713C55.4381 26.7711 56 25.4145 56 24C56 22.5855 55.4381 21.229 54.4379 20.2288C53.4377 19.2286 52.0812 18.6667 50.6667 18.6667C49.2522 18.6667 47.8956 19.2286 46.8954 20.2288C45.8952 21.229 45.3333 22.5855 45.3333 24Z" stroke="#F59E0B" stroke-width="1.5" stroke-linecap="round" stroke-linejoin="round"/>
</g>
</svg>
