<svg width="38" height="38" viewBox="0 0 38 38" fill="none" xmlns="http://www.w3.org/2000/svg">
<g id="Group">
<path id="Vector" d="M26.0933 21.0267C24.2121 21.0267 22.4078 21.774 21.0776 23.1043C19.7473 24.4345 19 26.2387 19 28.12M19 28.12V30.1467M19 28.12C19 26.2387 18.2527 24.4345 16.9224 23.1043C15.5922 21.774 13.7879 21.0267 11.9067 21.0267M19 30.1467C19 32.0279 19.7473 33.8322 21.0776 35.1624C22.4078 36.4927 24.2121 37.24 26.0933 37.24C27.9746 37.24 29.7788 36.4927 31.1091 35.1624C32.4393 33.8322 33.1867 32.0279 33.1867 30.1467V26.4987M19 30.1467C19 32.0279 18.2527 33.8322 16.9224 35.1624C15.5922 36.4927 13.7879 37.24 11.9067 37.24C10.0254 37.24 8.22118 36.4927 6.89092 35.1624C5.56066 33.8322 4.81333 32.0279 4.81333 30.1467V26.4987" stroke="white" stroke-width="1.5" stroke-linecap="round" stroke-linejoin="round"/>
<path id="Vector_2" d="M30.1467 27.1067C32.0279 27.1067 33.8322 26.3593 35.1624 25.0291C36.4927 23.6988 37.24 21.8946 37.24 20.0133C37.24 18.1321 36.4927 16.3278 35.1624 14.9976C33.8322 13.6673 32.0279 12.92 30.1467 12.92H29.1333" stroke="white" stroke-width="1.5" stroke-linecap="round" stroke-linejoin="round"/>
<path id="Vector_3" d="M33.1867 13.528V7.85333C33.1867 5.97206 32.4393 4.16785 31.1091 2.83759C29.7788 1.50733 27.9746 0.76 26.0933 0.76C24.2121 0.76 22.4078 1.50733 21.0776 2.83759C19.7473 4.16785 19 5.97206 19 7.85333M7.85333 27.1067C5.97206 27.1067 4.16785 26.3593 2.83759 25.0291C1.50733 23.6988 0.76 21.8946 0.76 20.0133C0.76 18.1321 1.50733 16.3278 2.83759 14.9976C4.16785 13.6673 5.97206 12.92 7.85333 12.92H8.86667" stroke="white" stroke-width="1.5" stroke-linecap="round" stroke-linejoin="round"/>
<path id="Vector_4" d="M4.81333 13.528V7.85333C4.81333 5.97206 5.56066 4.16785 6.89092 2.83759C8.22118 1.50733 10.0254 0.76 11.9067 0.76C13.7879 0.76 15.5922 1.50733 16.9224 2.83759C18.2527 4.16785 19 5.97206 19 7.85333V28.12" stroke="white" stroke-width="1.5" stroke-linecap="round" stroke-linejoin="round"/>
</g>
</svg>
