<svg width="48" height="48" viewBox="0 0 48 48" fill="none" xmlns="http://www.w3.org/2000/svg">
<g id="Frame">
<path id="Vector" d="M6 24C6 26.3638 6.46558 28.7044 7.37017 30.8883C8.27475 33.0722 9.60062 35.0565 11.2721 36.7279C12.9435 38.3994 14.9278 39.7252 17.1117 40.6298C19.2956 41.5344 21.6362 42 24 42C26.3638 42 28.7044 41.5344 30.8883 40.6298C33.0722 39.7252 35.0565 38.3994 36.7279 36.7279C38.3994 35.0565 39.7252 33.0722 40.6298 30.8883C41.5344 28.7044 42 26.3638 42 24M6 24C6 21.6362 6.46558 19.2956 7.37017 17.1117C8.27475 14.9278 9.60062 12.9435 11.2721 11.2721C12.9435 9.60062 14.9278 8.27475 17.1117 7.37017C19.2956 6.46558 21.6362 6 24 6C26.3638 6 28.7044 6.46558 30.8883 7.37017C33.0722 8.27475 35.0565 9.60062 36.7279 11.2721C38.3994 12.9435 39.7252 14.9278 40.6298 17.1117C41.5344 19.2956 42 21.6362 42 24M6 24H42M9.2 14H38.8M9.2 34H38.8" stroke="#3B82F6" stroke-width="1.5" stroke-linecap="round" stroke-linejoin="round"/>
</g>
</svg>
