<svg width="34" height="34" viewBox="0 0 34 34" fill="none" xmlns="http://www.w3.org/2000/svg">
<g id="Group">
<path id="Vector" d="M0.860697 18.9729C4.46927 19.4017 7.82865 21.0321 10.3983 23.6017C12.9679 26.1714 14.5983 29.5307 15.0271 33.1393C16.816 32.108 18.3123 30.6376 19.3746 28.867C20.437 27.0964 21.0303 25.0841 21.0984 23.0204C24.4966 21.825 27.4639 19.6488 29.6253 16.767C31.7867 13.8852 33.045 10.4272 33.2411 6.83024C33.2411 5.22002 32.6014 3.67576 31.4628 2.53716C30.3242 1.39857 28.78 0.758915 27.1698 0.758915C23.5728 0.955035 20.1148 2.21333 17.233 4.37469C14.3512 6.53606 12.175 9.50342 10.9796 12.9016C8.91585 12.9697 6.9036 13.563 5.13301 14.6254C3.36243 15.6877 1.89199 17.184 0.860697 18.9729Z" stroke="white" stroke-width="1.5" stroke-linecap="round" stroke-linejoin="round"/>
<path id="Vector_2" d="M6.932 20.9967C4.82572 22.1858 3.12256 23.9768 2.04086 26.1402C0.959155 28.3036 0.548202 30.7408 0.860682 33.1393C3.25918 33.4518 5.69634 33.0408 7.85975 31.9591C10.0232 30.8774 11.8142 29.1743 13.0033 27.068M21.0984 10.8778C21.0984 11.4145 21.3116 11.9293 21.6912 12.3088C22.0707 12.6883 22.5855 12.9016 23.1222 12.9016C23.6589 12.9016 24.1737 12.6883 24.5532 12.3088C24.9328 11.9293 25.146 11.4145 25.146 10.8778C25.146 10.341 24.9328 9.82629 24.5532 9.44676C24.1737 9.06723 23.6589 8.85401 23.1222 8.85401C22.5855 8.85401 22.0707 9.06723 21.6912 9.44676C21.3116 9.82629 21.0984 10.341 21.0984 10.8778Z" stroke="white" stroke-width="1.5" stroke-linecap="round" stroke-linejoin="round"/>
</g>
</svg>
