<svg width="40" height="40" viewBox="0 0 40 40" fill="none" xmlns="http://www.w3.org/2000/svg">
<g id="Frame">
<path id="Vector" d="M16.6666 3.33325C17.942 3.33318 19.1692 3.82046 20.0971 4.69539C21.025 5.57032 21.5835 6.76676 21.6583 8.03992L21.6666 8.33325V9.99992H26.6666C27.5076 9.99965 28.3176 10.3173 28.9342 10.8891C29.5509 11.4609 29.9286 12.2447 29.9916 13.0833L30 13.3333V18.3333H31.6666C32.9682 18.332 34.2189 18.8383 35.153 19.7445C36.0872 20.6508 36.6311 21.8856 36.6693 23.1865C36.7075 24.4875 36.2369 25.752 35.3575 26.7115C34.4782 27.671 33.2593 28.2498 31.96 28.3249L31.6666 28.3333H30V33.3333C30.0002 34.1742 29.6826 34.9842 29.1108 35.6008C28.539 36.2175 27.7552 36.5952 26.9166 36.6583L26.6666 36.6666H21.6666C20.8257 36.6669 20.0157 36.3492 19.3991 35.7774C18.7824 35.2056 18.4047 34.4218 18.3416 33.5833L18.3333 33.3333V31.6666C18.3328 31.2418 18.1702 30.8332 17.8786 30.5243C17.587 30.2154 17.1884 30.0295 16.7643 30.0046C16.3403 29.9797 15.9227 30.1177 15.5969 30.3904C15.2712 30.663 15.0618 31.0498 15.0116 31.4716L15 31.6666V33.3333C15.0002 34.1742 14.6826 34.9842 14.1108 35.6008C13.539 36.2175 12.7552 36.5952 11.9166 36.6583L11.6666 36.6666H6.66665C5.82569 36.6669 5.0157 36.3492 4.39907 35.7774C3.78243 35.2056 3.40472 34.4218 3.34165 33.5833L3.33331 33.3333V28.3333C3.33305 27.4923 3.65066 26.6823 4.22247 26.0657C4.79429 25.449 5.57805 25.0713 6.41665 25.0083L6.66665 24.9999H8.33331C8.75811 24.9994 9.1667 24.8368 9.47559 24.5452C9.78449 24.2536 9.97037 23.855 9.99527 23.4309C10.0202 23.0069 9.88219 22.5893 9.60954 22.2635C9.33689 21.9378 8.95014 21.7284 8.52831 21.6783L8.33331 21.6666H6.66665C5.82569 21.6669 5.0157 21.3492 4.39907 20.7774C3.78243 20.2056 3.40472 19.4218 3.34165 18.5833L3.33331 18.3333V13.3333C3.33305 12.4923 3.65066 11.6823 4.22247 11.0657C4.79429 10.449 5.57805 10.0713 6.41665 10.0083L6.66665 9.99992H11.6666V8.33325C11.6666 7.00717 12.1934 5.7354 13.1311 4.79772C14.0688 3.86004 15.3406 3.33325 16.6666 3.33325Z" fill="#8B5CF6"/>
</g>
</svg>
