<svg width="64" height="64" viewBox="0 0 64 64" fill="none" xmlns="http://www.w3.org/2000/svg">
<g id="Frame">
<path id="Vector" d="M32 5.33331V10.6666M24 32V56M40 32V56M13.3334 42.6666L24 37.3333M40 37.3333L50.6667 42.6666M24 48H40M26.6667 21.3333V21.36M37.3334 21.3333V21.36M16 16C16 14.5855 16.5619 13.2289 17.5621 12.2287C18.5623 11.2285 19.9189 10.6666 21.3334 10.6666H42.6667C44.0812 10.6666 45.4377 11.2285 46.4379 12.2287C47.4381 13.2289 48 14.5855 48 16V26.6666C48 28.0811 47.4381 29.4377 46.4379 30.4379C45.4377 31.4381 44.0812 32 42.6667 32H21.3334C19.9189 32 18.5623 31.4381 17.5621 30.4379C16.5619 29.4377 16 28.0811 16 26.6666V16Z" stroke="#8B5CF6" stroke-width="1.5" stroke-linecap="round" stroke-linejoin="round"/>
</g>
</svg>
