<svg width="32" height="32" viewBox="0 0 32 32" fill="none" xmlns="http://www.w3.org/2000/svg">
<g id="Group">
<path id="Vector" d="M15.9782 0.761905C19.9331 4.26087 25.0948 6.08265 30.3698 5.84127C31.1377 8.45378 31.3727 11.194 31.0608 13.8991C30.7488 16.6043 29.8962 19.2191 28.5537 21.5882C27.2112 23.9573 25.4062 26.0324 23.2459 27.6901C21.0856 29.3479 18.6141 30.5544 15.9782 31.2381C13.3424 30.5544 10.8709 29.3479 8.71058 27.6901C6.55026 26.0324 4.74523 23.9573 3.40273 21.5882C2.06023 19.2191 1.20766 16.6043 0.895686 13.8991C0.583714 11.194 0.818703 8.45378 1.58669 5.84127C6.86166 6.08265 12.0234 4.26087 15.9782 0.761905Z" stroke="#8B5CF6" stroke-width="1.5" stroke-linecap="round" stroke-linejoin="round"/>
<path id="Vector_2" d="M15.9782 16.0001C15.5292 16.0001 15.0985 15.8217 14.781 15.5042C14.4635 15.1867 14.2851 14.756 14.2851 14.307C14.2851 13.8579 14.4635 13.4273 14.781 13.1097C15.0985 12.7922 15.5292 12.6138 15.9782 12.6138C16.4273 12.6138 16.8579 12.7922 17.1754 13.1097C17.493 13.4273 17.6713 13.8579 17.6713 14.307C17.6713 14.756 17.493 15.1867 17.1754 15.5042C16.8579 15.8217 16.4273 16.0001 15.9782 16.0001ZM15.9782 16.0001V20.2329" stroke="#8B5CF6" stroke-width="1.5" stroke-linecap="round" stroke-linejoin="round"/>
</g>
</svg>
