<svg width="29" height="32" viewBox="0 0 29 32" fill="none" xmlns="http://www.w3.org/2000/svg">
<g id="Group">
<path id="Vector" d="M4.14812 4.14828H24.4654C25.3635 4.14828 26.2248 4.50504 26.8598 5.14008C27.4949 5.77512 27.8516 6.63642 27.8516 7.5345V27.8518C27.8516 28.7499 27.4949 29.6112 26.8598 30.2462C26.2248 30.8813 25.3635 31.238 24.4654 31.238H4.14812C3.25004 31.238 2.38874 30.8813 1.7537 30.2462C1.11866 29.6112 0.761899 28.7499 0.761899 27.8518V7.5345C0.761899 6.63642 1.11866 5.77512 1.7537 5.14008C2.38874 4.50504 3.25004 4.14828 4.14812 4.14828Z" stroke="#3B82F6" stroke-width="1.5" stroke-linecap="round" stroke-linejoin="round"/>
<path id="Vector_2" d="M9.2274 22.7726C10.9205 23.9013 12.6136 24.4657 14.3067 24.4657C16.8464 24.4657 17.6929 23.9019 19.3861 22.7726M9.2274 7.53458L7.53429 0.762147M19.3861 7.53458L21.0792 0.762147M9.2274 16.0001V14.307M19.3861 16.0001V14.307" stroke="#3B82F6" stroke-width="1.5" stroke-linecap="round" stroke-linejoin="round"/>
</g>
</svg>
