<svg width="29" height="32" viewBox="0 0 29 32" fill="none" xmlns="http://www.w3.org/2000/svg">
<g id="Group">
<path id="Vector" d="M4.14815 4.14831H24.4656C25.3637 4.14831 26.225 4.50508 26.86 5.14012C27.4951 5.77516 27.8519 6.63647 27.8519 7.53456V27.852C27.8519 28.7501 27.4951 29.6114 26.86 30.2465C26.225 30.8815 25.3637 31.2383 24.4656 31.2383H4.14815C3.25006 31.2383 2.38876 30.8815 1.75371 30.2465C1.11867 29.6114 0.761905 28.7501 0.761905 27.852V7.53456C0.761905 6.63647 1.11867 5.77516 1.75371 5.14012C2.38876 4.50508 3.25006 4.14831 4.14815 4.14831Z" stroke="#8B5CF6" stroke-width="1.5" stroke-linecap="round" stroke-linejoin="round"/>
<path id="Vector_2" d="M9.22753 22.7725C10.9207 23.9012 12.6138 24.4656 14.3069 24.4656C16.8466 24.4656 17.6931 23.9018 19.3863 22.7725M9.22753 7.53439L7.53441 0.761905M19.3863 7.53439L21.0794 0.761905M9.22753 16V14.3069M19.3863 16V14.3069" stroke="#8B5CF6" stroke-width="1.5" stroke-linecap="round" stroke-linejoin="round"/>
</g>
</svg>
