<svg width="32" height="32" viewBox="0 0 32 32" fill="none" xmlns="http://www.w3.org/2000/svg">
<g id="Group">
<path id="Vector" d="M21.0794 5.84127H21.0963M0.761905 5.84127C0.761905 4.49414 1.29705 3.20218 2.24962 2.24962C3.20218 1.29705 4.49414 0.761905 5.84127 0.761905H26.1587C27.5059 0.761905 28.7978 1.29705 29.7504 2.24962C30.7029 3.20218 31.2381 4.49414 31.2381 5.84127V19.3862C31.2381 20.7334 30.7029 22.0253 29.7504 22.9779C28.7978 23.9305 27.5059 24.4656 26.1587 24.4656H5.84127C4.49414 24.4656 3.20218 23.9305 2.24962 22.9779C1.29705 22.0253 0.761905 20.7334 0.761905 19.3862V5.84127Z" stroke="#10B981" stroke-width="1.5" stroke-linecap="round" stroke-linejoin="round"/>
<path id="Vector_2" d="M0.761905 17.6931L7.53439 10.9206C8.30655 10.1776 9.18246 9.78646 10.0741 9.78646C10.9657 9.78646 11.8416 10.1776 12.6138 10.9206L19.3862 17.6931" stroke="#10B981" stroke-width="1.5" stroke-linecap="round" stroke-linejoin="round"/>
<path id="Vector_3" d="M17.6932 16.0001L21.0794 12.6138C21.8516 11.8708 22.7275 11.4797 23.6191 11.4797C24.5107 11.4797 25.3866 11.8708 26.1588 12.6138L31.2381 17.6932M9.22755 31.2382H9.24449M16 31.2382H16.017M22.7725 31.2382H22.7895" stroke="#10B981" stroke-width="1.5" stroke-linecap="round" stroke-linejoin="round"/>
</g>
</svg>
