<svg width="14" height="21" viewBox="0 0 14 21" fill="none" xmlns="http://www.w3.org/2000/svg">
<g id="Group">
<path id="Vector" d="M4.86585 4.86585H8.96341M3.84146 13.061C3.84146 13.876 4.16524 14.6577 4.74157 15.234C5.31791 15.8104 6.09958 16.1341 6.91463 16.1341C7.72969 16.1341 8.51136 15.8104 9.08769 15.234C9.66403 14.6577 9.9878 13.876 9.9878 13.061C9.9878 12.2459 9.66403 11.4642 9.08769 10.8879C8.51136 10.3116 7.72969 9.9878 6.91463 9.9878C6.09958 9.9878 5.31791 10.3116 4.74157 10.8879C4.16524 11.4642 3.84146 12.2459 3.84146 13.061Z" stroke="white" stroke-width="1.5" stroke-linecap="round" stroke-linejoin="round"/>
<path id="Vector_2" d="M4.86585 16.1341V20.2317L6.91463 19.2073L8.96341 20.2317V16.1341" stroke="white" stroke-width="1.5" stroke-linecap="round" stroke-linejoin="round"/>
<path id="Vector_3" d="M4.86585 17.1585H2.81707C2.2737 17.1585 1.75259 16.9427 1.36837 16.5585C0.984146 16.1742 0.768293 15.6531 0.768293 15.1098V2.81707C0.768293 2.2737 0.984146 1.75259 1.36837 1.36837C1.75259 0.984146 2.2737 0.768293 2.81707 0.768293H11.0122C11.5556 0.768293 12.0767 0.984146 12.4609 1.36837C12.8451 1.75259 13.061 2.2737 13.061 2.81707V15.1098C13.061 15.6531 12.8451 16.1742 12.4609 16.5585C12.0767 16.9427 11.5556 17.1585 11.0122 17.1585H8.96341" stroke="white" stroke-width="1.5" stroke-linecap="round" stroke-linejoin="round"/>
</g>
</svg>
