<svg width="34" height="34" viewBox="0 0 34 34" fill="none" xmlns="http://www.w3.org/2000/svg">
<g id="Group">
<path id="Vector" d="M0.761194 4.8209C0.761194 3.7442 1.18891 2.71159 1.95025 1.95025C2.71159 1.18891 3.7442 0.761194 4.8209 0.761194H29.1791C30.2558 0.761194 31.2884 1.18891 32.0497 1.95025C32.8111 2.71159 33.2388 3.7442 33.2388 4.8209V29.1791C33.2388 30.2558 32.8111 31.2884 32.0497 32.0497C31.2884 32.8111 30.2558 33.2388 29.1791 33.2388H4.8209C3.7442 33.2388 2.71159 32.8111 1.95025 32.0497C1.18891 31.2884 0.761194 30.2558 0.761194 29.1791V4.8209Z" stroke="#F59E0B" stroke-width="1.5" stroke-linecap="round" stroke-linejoin="round"/>
<path id="Vector_2" d="M17 0.761194V5.83582C17 6.105 16.8931 6.36315 16.7027 6.55348C16.5124 6.74382 16.2542 6.85075 15.9851 6.85075C15.1775 6.85075 14.4031 7.17153 13.8321 7.74254C13.2611 8.31355 12.9403 9.088 12.9403 9.89552C12.9403 10.703 13.2611 11.4775 13.8321 12.0485C14.4031 12.6195 15.1775 12.9403 15.9851 12.9403C16.2542 12.9403 16.5124 13.0472 16.7027 13.2376C16.8931 13.4279 17 13.686 17 13.9552V17M17 17V20.0448C17 20.314 17.1069 20.5721 17.2973 20.7624C17.4876 20.9528 17.7458 21.0597 18.0149 21.0597C18.8225 21.0597 19.5969 21.3805 20.1679 21.9515C20.7389 22.5225 21.0597 23.297 21.0597 24.1045C21.0597 24.912 20.7389 25.6865 20.1679 26.2575C19.5969 26.8285 18.8225 27.1493 18.0149 27.1493C17.7458 27.1493 17.4876 27.2562 17.2973 27.4465C17.1069 27.6369 17 27.895 17 28.1642V33.2388M17 17H20.0448C20.314 17 20.5721 16.8931 20.7624 16.7027C20.9528 16.5124 21.0597 16.2542 21.0597 15.9851C21.0597 15.1775 21.3805 14.4031 21.9515 13.8321C22.5225 13.2611 23.297 12.9403 24.1045 12.9403C24.912 12.9403 25.6865 13.2611 26.2575 13.8321C26.8285 14.4031 27.1493 15.1775 27.1493 15.9851C27.1493 16.2542 27.2562 16.5124 27.4465 16.7027C27.6369 16.8931 27.895 17 28.1642 17H33.2388M17 17H13.9552C13.686 17 13.4279 17.1069 13.2376 17.2973C13.0472 17.4876 12.9403 17.7458 12.9403 18.0149C12.9403 18.8225 12.6195 19.5969 12.0485 20.1679C11.4775 20.7389 10.703 21.0597 9.89552 21.0597C9.088 21.0597 8.31355 20.7389 7.74254 20.1679C7.17153 19.5969 6.85075 18.8225 6.85075 18.0149C6.85075 17.7458 6.74382 17.4876 6.55348 17.2973C6.36315 17.1069 6.105 17 5.83582 17H0.761194" stroke="#F59E0B" stroke-width="1.5" stroke-linecap="round" stroke-linejoin="round"/>
</g>
</svg>
