<svg width="48" height="48" viewBox="0 0 48 48" fill="none" xmlns="http://www.w3.org/2000/svg">
<g id="Frame">
<path id="Vector" d="M32 36C33.0609 36 34.0783 36.4214 34.8284 37.1716C35.5786 37.9217 36 38.9391 36 40C36 38.9391 36.4214 37.9217 37.1716 37.1716C37.9217 36.4214 38.9391 36 40 36C38.9391 36 37.9217 35.5786 37.1716 34.8284C36.4214 34.0783 36 33.0609 36 32C36 33.0609 35.5786 34.0783 34.8284 34.8284C34.0783 35.5786 33.0609 36 32 36ZM32 12C33.0609 12 34.0783 12.4214 34.8284 13.1716C35.5786 13.9217 36 14.9391 36 16C36 14.9391 36.4214 13.9217 37.1716 13.1716C37.9217 12.4214 38.9391 12 40 12C38.9391 12 37.9217 11.5786 37.1716 10.8284C36.4214 10.0783 36 9.06087 36 8C36 9.06087 35.5786 10.0783 34.8284 10.8284C34.0783 11.5786 33.0609 12 32 12ZM18 36C18 32.8174 19.2643 29.7652 21.5147 27.5147C23.7652 25.2643 26.8174 24 30 24C26.8174 24 23.7652 22.7357 21.5147 20.4853C19.2643 18.2348 18 15.1826 18 12C18 15.1826 16.7357 18.2348 14.4853 20.4853C12.2348 22.7357 9.1826 24 6 24C9.1826 24 12.2348 25.2643 14.4853 27.5147C16.7357 29.7652 18 32.8174 18 36Z" stroke="white" stroke-width="1.5" stroke-linecap="round" stroke-linejoin="round"/>
</g>
</svg>
