<svg width="48" height="48" viewBox="0 0 48 48" fill="none" xmlns="http://www.w3.org/2000/svg">
<g id="Frame">
<path id="Vector" d="M38 35.9999C39.8565 35.9999 41.637 35.2624 42.9497 33.9497C44.2625 32.6369 45 30.8564 45 28.9999C45 27.1434 44.2625 25.3629 42.9497 24.0502C41.637 22.7374 39.8565 21.9999 38 21.9999H36C36.2918 20.6998 36.2962 19.3607 36.0131 18.0591C35.7299 16.7575 35.1646 15.5188 34.3495 14.4138C33.5344 13.3087 32.4855 12.359 31.2626 11.6189C30.0397 10.8787 28.6667 10.3625 27.2222 10.0999C25.7777 9.83726 24.2898 9.83326 22.8435 10.0881C21.3973 10.343 20.021 10.8517 18.7932 11.5853C16.3135 13.0669 14.5893 15.3743 14 17.9999C11.8679 17.9145 9.77106 18.5407 8.06852 19.7713C6.36598 21.0019 5.16363 22.7603 4.66732 24.7456C4.17102 26.7308 4.41164 28.8193 5.34798 30.6535C6.28432 32.4877 7.85814 33.9535 9.79998 34.7999M24 25.9999V43.9999M24 43.9999L18 37.9999M24 43.9999L30 37.9999" stroke="#10B981" stroke-width="1.5" stroke-linecap="round" stroke-linejoin="round"/>
</g>
</svg>
