<svg width="32" height="25" viewBox="0 0 32 25" fill="none" xmlns="http://www.w3.org/2000/svg">
<g id="Group">
<path id="Vector" d="M19.2115 7.46647V17.5336M0.755036 4.11075C0.755036 3.22076 1.10858 2.36722 1.7379 1.7379C2.36722 1.10858 3.22076 0.755036 4.11075 0.755036H27.6008C28.4908 0.755036 29.3443 1.10858 29.9736 1.7379C30.6029 2.36722 30.9565 3.22076 30.9565 4.11075V20.8893C30.9565 21.7793 30.6029 22.6329 29.9736 23.2622C29.3443 23.8915 28.4908 24.245 27.6008 24.245H4.11075C3.22076 24.245 2.36722 23.8915 1.7379 23.2622C1.10858 22.6329 0.755036 21.7793 0.755036 20.8893V4.11075Z" stroke="#F59E0B" stroke-width="1.5" stroke-linecap="round" stroke-linejoin="round"/>
<path id="Vector_2" d="M24.245 7.46655L20.8893 12.5001M20.8893 12.5001L24.245 17.5337M20.8893 12.5001H19.2114M7.46643 7.46655H10.8221C11.2671 7.46655 11.6939 7.64332 12.0086 7.95798C12.3232 8.27264 12.5 8.69941 12.5 9.14441V10.8223C12.5 11.2673 12.3232 11.694 12.0086 12.0087C11.6939 12.3233 11.2671 12.5001 10.8221 12.5001H9.14428C8.69929 12.5001 8.27252 12.6769 7.95786 12.9916C7.6432 13.3062 7.46643 13.733 7.46643 14.178V15.8558C7.46643 16.3008 7.6432 16.7276 7.95786 17.0423C8.27252 17.3569 8.69929 17.5337 9.14428 17.5337H12.5" stroke="#F59E0B" stroke-width="1.5" stroke-linecap="round" stroke-linejoin="round"/>
</g>
</svg>
