<svg width="20" height="20" viewBox="0 0 20 20" fill="none" xmlns="http://www.w3.org/2000/svg">
<g id="Group">
<path id="Vector" d="M1.79441 15.1265C1.79441 15.9424 2.11854 16.7249 2.69551 17.3019C3.27248 17.8789 4.05501 18.203 4.87097 18.203M12.8751 4.22519L15.7292 1.37015C16.1137 0.985424 16.6354 0.769235 17.1794 0.769139C17.7234 0.769043 18.2451 0.985047 18.6298 1.36963C19.0146 1.75422 19.2308 2.27588 19.2308 2.81987C19.2309 3.36385 19.0149 3.88559 18.6304 4.27031L15.7753 7.12741" stroke="white" stroke-width="1.5" stroke-linecap="round" stroke-linejoin="round"/>
<path id="Vector_2" d="M14.6185 5.37869C15.5684 6.32847 16.1169 7.60703 16.1505 8.94989C16.1841 10.2927 15.7002 11.5971 14.799 12.5932L14.6185 12.7819L12.7039 14.6966C12.091 15.3088 11.7218 16.1231 11.665 16.9876L11.6568 17.2234V18.1813C11.6568 18.5166 11.5235 18.8376 11.2876 19.0745C11.2011 19.1616 11.0867 19.2155 10.9645 19.2267C10.8423 19.238 10.7199 19.2059 10.619 19.136L10.5472 19.0745L0.922712 9.45103C0.874031 9.40245 0.835408 9.34474 0.809056 9.28122C0.782704 9.21769 0.769139 9.14959 0.769139 9.08081C0.769139 9.01204 0.782704 8.94394 0.809056 8.88041C0.835408 8.81689 0.874031 8.75918 0.922712 8.7106C1.12577 8.50755 1.39035 8.38038 1.67339 8.34859L1.81594 8.34039H2.77275C3.64239 8.34039 4.47819 8.0235 5.12837 7.45434L5.30065 7.29334L7.2153 5.37869L7.37938 5.22179C8.37381 4.31021 9.68175 3.81769 11.0305 3.84693C12.3792 3.87616 13.6645 4.42489 14.6185 5.37869Z" stroke="white" stroke-width="1.5" stroke-linecap="round" stroke-linejoin="round"/>
</g>
</svg>
